<?xml version="1.0" standalone="no"?>
<!DOCTYPE svg PUBLIC "-//W3C//DTD SVG 20010904//EN"
 "http://www.w3.org/TR/2001/REC-SVG-20010904/DTD/svg10.dtd">
<svg version="1.0" xmlns="http://www.w3.org/2000/svg"
 width="512.000000pt" height="512.000000pt" viewBox="0 0 512.000000 512.000000"
 preserveAspectRatio="xMidYMid meet">

<g transform="translate(0.000000,512.000000) scale(0.100000,-0.100000)"
fill="#000000" stroke="none">
<path d="M109 4577 c-24 -13 -57 -43 -74 -66 l-30 -43 0 -1908 0 -1908 30 -43
c17 -23 50 -53 74 -66 l44 -23 2407 0 2407 0 44 23 c24 13 58 43 74 66 l30 43
0 1908 0 1908 -30 43 c-16 23 -50 53 -74 66 l-44 23 -2407 0 -2407 0 -44 -23z
m4601 -1312 l0 -935 -2150 0 -2150 0 0 935 0 935 2150 0 2150 0 0 -935z
m-3710 -1385 l0 -40 -200 0 -200 0 0 -135 0 -135 181 0 180 0 -3 -42 -3 -43
-177 -3 -178 -2 -2 -163 -3 -162 -42 -3 -43 -3 0 385 0 386 245 0 245 0 0 -40z
m202 -227 c3 -263 3 -269 27 -310 33 -57 85 -91 155 -103 114 -18 209 20 257
103 24 41 24 47 27 310 l3 267 45 0 44 0 0 -233 c0 -128 -5 -260 -11 -293 -18
-102 -73 -174 -164 -216 -72 -33 -228 -33 -300 0 -65 30 -118 83 -147 146 -22
49 -23 64 -26 324 l-3 272 45 0 45 0 3 -267z m858 -73 l0 -340 170 0 170 0 0
-45 0 -45 -212 2 -213 3 -3 383 -2 382 45 0 45 0 0 -340z m570 0 l0 -340 170
0 170 0 0 -45 0 -45 -212 2 -213 3 -3 383 -2 382 45 0 45 0 0 -340z m640 185
l0 -155 160 0 160 0 0 155 0 155 100 0 100 0 -2 -382 -3 -383 -97 -3 -98 -3 0
151 0 150 -160 0 -160 0 0 -150 0 -150 -95 0 -95 0 0 385 0 385 95 0 95 0 0
-155z m1184 124 c86 -39 149 -97 188 -176 31 -64 33 -74 33 -173 0 -95 -3
-111 -29 -168 -37 -79 -114 -151 -195 -182 -82 -30 -164 -40 -348 -40 l-163 0
0 225 0 225 100 0 100 0 0 -146 0 -146 104 4 c91 3 108 6 143 30 112 74 127
269 28 364 -57 55 -99 64 -304 64 l-171 0 0 76 0 75 228 -3 c219 -3 229 -4
286 -29z"/>
<path d="M1427 3581 l-227 -438 0 -117 0 -116 340 0 340 0 0 -160 0 -160 170
0 170 0 0 160 0 160 95 0 95 0 0 135 0 135 -95 0 -95 0 0 155 0 155 -170 0
-170 0 0 -155 0 -155 -151 0 -151 0 211 415 c116 229 211 418 211 420 0 3 -78
5 -173 5 l-172 0 -228 -439z"/>
<path d="M2590 3305 l0 -715 180 0 180 0 0 176 0 176 91 102 c50 55 94 102 98
103 3 1 91 -124 194 -277 l188 -280 215 0 c117 0 214 2 214 4 0 3 -127 192
-281 421 l-281 417 34 36 c45 48 459 512 477 535 13 16 2 17 -195 17 l-209 0
-270 -306 -270 -306 -3 306 -2 306 -180 0 -180 0 0 -715z"/>
</g>
</svg>
