<?xml version="1.0" standalone="no"?>
<!DOCTYPE svg PUBLIC "-//W3C//DTD SVG 20010904//EN"
 "http://www.w3.org/TR/2001/REC-SVG-20010904/DTD/svg10.dtd">
<svg version="1.0" xmlns="http://www.w3.org/2000/svg"
 width="512.000000pt" height="512.000000pt" viewBox="0 0 512.000000 512.000000"
 preserveAspectRatio="xMidYMid meet">

<g transform="translate(0.000000,512.000000) scale(0.100000,-0.100000)"
fill="#000000" stroke="none">
<path d="M115 3551 c-48 -22 -79 -54 -100 -103 -13 -33 -15 -143 -15 -890 0
-808 1 -855 19 -893 22 -48 54 -79 103 -100 33 -13 294 -15 2438 -15 2144 0
2405 2 2438 15 49 21 81 52 103 100 17 36 19 71 19 378 l0 338 -25 24 c-31 32
-69 32 -100 0 l-25 -24 0 -325 c0 -282 -2 -327 -16 -340 -14 -14 -245 -16
-2394 -16 -2149 0 -2380 2 -2394 16 -14 14 -16 104 -16 844 0 740 2 830 16
844 14 14 130 16 1130 16 l1115 0 24 25 c14 13 25 36 25 50 0 14 -11 37 -25
50 l-24 25 -1128 0 c-1075 0 -1130 -1 -1168 -19z"/>
<path d="M2685 3545 c-14 -13 -25 -36 -25 -50 0 -14 11 -37 25 -50 l24 -25
1115 0 c1000 0 1116 -2 1130 -16 14 -13 16 -61 16 -370 l0 -355 25 -24 c31
-32 69 -32 100 0 l25 24 0 366 c0 307 -2 372 -15 403 -21 49 -52 81 -100 103
-38 18 -93 19 -1168 19 l-1128 0 -24 -25z"/>
<path d="M697 2964 c-14 -15 -8 -92 9 -98 9 -3 220 -6 470 -6 l455 0 24 -24
c30 -30 41 -87 26 -136 -20 -67 -3 -64 -445 -70 -445 -6 -432 -4 -494 -74 -46
-52 -53 -93 -50 -256 l3 -145 78 -3 c47 -2 84 2 92 8 10 8 14 51 17 160 4 215
-43 194 446 200 382 5 398 6 437 27 53 28 81 60 100 112 40 113 -2 232 -98
284 -42 22 -46 22 -552 25 -281 2 -514 0 -518 -4z"/>
<path d="M2590 2961 c-77 -24 -132 -75 -150 -139 -5 -20 -10 -135 -10 -255 0
-231 -7 -274 -48 -296 -13 -7 -111 -11 -272 -11 -154 0 -259 -4 -271 -10 -23
-13 -26 -71 -5 -89 11 -9 97 -11 323 -9 297 3 310 4 350 25 40 22 80 66 99
108 5 11 11 134 14 273 l5 254 28 24 c28 24 28 24 276 24 277 0 275 -1 269 67
l-3 38 -290 2 c-159 1 -301 -2 -315 -6z"/>
<path d="M4100 2932 c-132 -77 -956 -585 -972 -600 -21 -17 -24 -67 -5 -79 6
-4 224 -10 482 -13 l470 -5 5 -40 5 -40 78 -3 c90 -3 107 5 107 54 l0 33 83 3
82 3 0 45 0 45 -82 3 -83 3 0 273 c0 282 -5 327 -40 346 -33 17 -63 11 -130
-28z m-20 -367 l0 -225 -367 0 c-201 0 -364 2 -361 5 10 10 713 443 721 444 4
1 7 -100 7 -224z"/>
</g>
</svg>
