<?xml version="1.0" standalone="no"?>
<!DOCTYPE svg PUBLIC "-//W3C//DTD SVG 20010904//EN"
 "http://www.w3.org/TR/2001/REC-SVG-20010904/DTD/svg10.dtd">
<svg version="1.0" xmlns="http://www.w3.org/2000/svg"
 width="512.000000pt" height="512.000000pt" viewBox="0 0 512.000000 512.000000"
 preserveAspectRatio="xMidYMid meet">

<g transform="translate(0.000000,512.000000) scale(0.100000,-0.100000)"
fill="#000000" stroke="none">
<path d="M2254 3189 c-890 -890 -1294 -1300 -1294 -1315 0 -11 11 -31 25 -44
l25 -24 -80 -82 c-44 -45 -80 -90 -80 -100 0 -19 196 -224 214 -224 5 0 26 16
47 35 42 37 58 42 77 23 20 -20 14 -42 -18 -73 -16 -16 -30 -38 -30 -49 0 -24
586 -616 610 -616 8 0 52 37 97 82 l83 82 28 -27 c15 -15 37 -27 48 -27 12 0
478 459 1312 1293 710 711 1292 1296 1292 1302 0 13 -422 435 -436 435 -6 0
-23 -9 -37 -21 -59 -45 -138 -30 -177 34 -24 38 -25 73 -5 107 44 76 59 51
-166 276 -112 113 -212 210 -223 216 -16 9 -179 -150 -1312 -1283z m1621 816
c-21 -59 -18 -105 11 -163 45 -90 139 -129 235 -98 l52 17 169 -168 168 -168
-1247 -1247 c-687 -687 -1252 -1248 -1258 -1248 -13 0 -945 932 -945 945 0 5
561 571 1247 1257 l1248 1248 167 -168 168 -167 -15 -40z m-2400 -2665 l400
-400 -63 -62 -62 -63 -32 33 -32 32 44 45 c37 37 43 49 34 63 -20 31 -54 26
-95 -14 l-39 -38 -30 29 -30 29 40 41 c42 42 48 63 28 83 -21 21 -43 13 -83
-28 l-39 -40 -33 32 -33 32 40 41 c42 42 48 63 28 83 -20 20 -41 14 -83 -28
l-41 -40 -29 30 -29 30 38 39 c40 41 45 75 14 95 -14 9 -26 3 -63 -34 l-45
-44 -21 20 -20 21 20 34 c29 47 27 100 -5 138 -43 51 -108 59 -165 20 -23 -16
-28 -17 -39 -5 -14 18 1 50 30 66 39 21 34 90 -6 90 -8 0 -34 -18 -58 -40 -38
-35 -45 -38 -56 -25 -11 14 -5 25 46 76 32 32 61 59 64 59 3 0 185 -180 405
-400z"/>
<path d="M2412 3017 c-662 -662 -1002 -1009 -1002 -1022 0 -28 688 -715 715
-715 28 0 2025 1997 2025 2025 0 28 -688 715 -715 715 -13 0 -362 -342 -1023
-1003z m686 -674 c-530 -530 -967 -963 -973 -963 -13 0 -615 602 -615 615 0 5
433 443 962 972 l963 963 312 -312 313 -313 -962 -962z"/>
<path d="M3333 3519 c-48 -24 -153 -130 -153 -155 0 -23 228 -253 258 -261 19
-4 35 6 84 53 62 61 98 120 98 164 0 90 -129 219 -220 220 -14 0 -44 -9 -67
-21z m105 -73 c15 -8 39 -27 53 -43 63 -67 65 -113 10 -174 l-40 -44 -95 95
c-53 52 -95 99 -93 105 7 20 89 75 113 75 14 0 37 -6 52 -14z"/>
<path d="M3033 3234 c-50 -29 -93 -96 -93 -143 0 -43 55 -101 95 -101 15 0 63
18 106 40 43 22 85 40 94 40 8 0 22 -12 32 -26 16 -24 16 -28 -1 -59 -26 -48
-57 -61 -108 -48 -45 12 -64 9 -72 -13 -14 -36 28 -64 94 -64 81 0 180 116
166 194 -9 46 -66 96 -109 96 -18 0 -64 -17 -106 -41 -87 -47 -115 -48 -119
-3 -2 22 4 38 25 58 24 25 32 27 71 21 65 -10 90 17 52 55 -27 27 -76 25 -127
-6z"/>
<path d="M2780 2977 c-61 -32 -103 -93 -103 -148 0 -35 6 -48 32 -71 44 -39
88 -37 167 7 89 50 134 45 134 -15 0 -36 -51 -84 -87 -81 -99 7 -98 7 -101
-15 -4 -26 24 -51 68 -59 78 -14 190 84 190 166 0 54 -22 93 -64 113 -48 22
-55 21 -141 -24 -42 -22 -87 -40 -100 -40 -30 0 -40 28 -23 65 16 36 54 54 98
44 38 -8 60 3 60 31 0 46 -68 60 -130 27z"/>
<path d="M2419 2617 c-44 -29 -79 -82 -79 -119 0 -45 26 -88 54 -88 31 0 36
16 20 61 -20 59 16 109 69 95 42 -10 50 -38 48 -173 -3 -197 20 -209 148 -78
46 46 81 90 79 97 -2 6 -12 16 -21 22 -14 9 -27 0 -75 -47 -32 -31 -61 -57
-65 -57 -5 0 -5 47 -1 103 5 88 4 109 -11 141 -31 66 -104 85 -166 43z"/>
<path d="M2066 2269 c-14 -17 -26 -35 -26 -40 0 -6 27 -57 61 -115 33 -58 59
-107 57 -109 -2 -2 -51 23 -108 56 -58 32 -112 59 -121 59 -21 0 -69 -55 -69
-78 0 -18 250 -272 268 -272 14 0 42 28 42 42 0 6 -46 58 -102 115 l-103 104
130 -75 c71 -42 133 -76 138 -76 22 0 47 23 47 43 0 12 -23 60 -51 107 -28 47
-60 101 -72 120 -14 25 10 6 81 -62 55 -54 105 -98 111 -98 13 0 41 29 41 42
0 6 -57 69 -127 140 -87 87 -134 128 -149 128 -13 0 -34 -13 -48 -31z"/>
<path d="M2430 2170 c-15 -28 4 -60 35 -60 14 0 29 8 35 20 15 28 -4 60 -35
60 -14 0 -29 -8 -35 -20z"/>
<path d="M4218 3524 c-60 -32 -76 -121 -32 -173 76 -90 209 -41 209 77 0 38
-5 48 -37 78 -42 38 -92 45 -140 18z m92 -79 c14 -17 5 -51 -16 -59 -20 -8
-54 11 -54 29 0 43 43 62 70 30z"/>
<path d="M1222 1980 c-19 -12 -40 -37 -49 -58 -41 -98 71 -197 167 -147 81 42
78 176 -5 211 -47 19 -74 18 -113 -6z m86 -72 c28 -28 1 -75 -37 -63 -25 8
-34 31 -21 56 12 21 40 25 58 7z"/>
</g>
</svg>
